<svg xmlns="http://www.w3.org/2000/svg" xmlns:xlink="http://www.w3.org/1999/xlink" viewBox="0 0 38 38"><defs><circle id="a" cx="19" cy="19" r="19"/></defs><g fill="none" fill-rule="evenodd"><mask id="b" fill="#fff"><use xlink:href="#a"/></mask><use fill="#000000" xlink:href="#a"/><path fill="#fff" d="M18.72 26.233c-.872-.65-2.082-1.267-2.671-2.037.478-.83 1.927-.064 2.865.045.93-.143 2.378-1.031 2.907-.216-.55.802-1.726 1.485-2.564 2.183-.085.3-.014.71-.014.71 1.218.729 3.853.162 4.774-.723-.59 1.543-3.22 2.473-4.96 2.366-1.745.202-4.38-.593-5.055-2.117.965.832 3.59 1.293 4.769.498 0 0 .05-.413-.05-.709zM30.896 8.658c-1.067-1.871-3.188-2.914-5.263-3.992.858-3.444 3.83-7.959 8.083-5.104 1.421.955 3.459 3.708 2.637 5.795-.696 1.767-4.044 2.044-5.457 3.301zm-24.44.419C5.042 7.82 1.694 7.543.998 5.776.176 3.688 2.214.936 3.635-.02c4.252-2.855 7.225 1.66 8.083 5.104-2.075 1.078-4.196 2.12-5.263 3.992zm22.287 9.995c-.02 2.184-1.978 2.592-2.903 4.107-.082-2.852-2.694-4.468-4.08-6.302-.926-1.226-.086-3.35 1.468-3.16 2.173.265 5.534 3.108 5.515 5.355zm-17.317 4.324c-.785-1.62-2.645-2.191-2.507-4.426.142-2.299 3.59-4.944 5.707-5.046 1.513-.072 2.171 2.165 1.19 3.346-1.47 1.767-4.106 3.217-4.39 6.126z" mask="url(#b)"/></g></svg>